<mxfile host="app.diagrams.net" modified="2024-04-17T23:21:37.719Z" agent="Mozilla/5.0 (Windows NT 10.0; Win64; x64) AppleWebKit/537.36 (KHTML, like Gecko) Chrome/122.0.0.0 Safari/537.36 Edg/122.0.0.0" version="24.2.5" etag="xWfLr_yhOrc7dXV0oMjQ" type="github">
  <diagram name="PÃ¡gina-1" id="KqTNgGxHzFzMnI-UQhfY">
    <mxGraphModel>
      <root>
        <mxCell id="0" />
        <mxCell id="1" parent="0" />
      </root>
    </mxGraphModel>
  </diagram>
</mxfile>
